<?xml version="1.0" standalone="no"?>
<!DOCTYPE svg PUBLIC "-//W3C//DTD SVG 20010904//EN"
 "http://www.w3.org/TR/2001/REC-SVG-20010904/DTD/svg10.dtd">
<svg version="1.0" xmlns="http://www.w3.org/2000/svg"
 width="640.000000pt" height="1280.000000pt" viewBox="0 0 640.000000 1280.000000"
 preserveAspectRatio="xMidYMid meet">
<g transform="translate(0.000000,1280.000000) scale(0.100000,-0.100000)"
fill="#000000" stroke="none">
<path d="M3058 12780 c-164 -34 -282 -85 -398 -170 -177 -132 -292 -309 -346
-535 -27 -112 -23 -306 9 -426 86 -327 327 -564 667 -655 95 -26 319 -26 420
0 331 85 568 310 667 633 23 78 26 105 27 243 1 102 -4 174 -13 210 -83 329
-325 583 -641 674 -85 24 -210 46 -260 45 -25 0 -84 -9 -132 -19z"/>
<path d="M1635 10429 c-275 -40 -512 -211 -630 -454 -87 -177 -79 23 -83
-2150 -2 -1376 0 -1949 8 -1994 24 -138 98 -237 218 -294 63 -30 74 -32 177
-32 102 0 115 2 175 31 131 62 204 172 220 331 6 50 10 717 10 1541 l0 1453
153 -3 152 -3 5 -4245 5 -4245 21 -52 c60 -145 183 -246 358 -293 94 -25 118
-25 207 0 109 30 158 58 230 129 70 71 109 140 128 229 8 38 11 708 11 2381 0
2114 1 2329 16 2335 20 8 348 8 368 0 15 -6 16 -221 16 -2335 0 -1667 3 -2343
11 -2381 26 -125 126 -256 239 -313 57 -29 186 -65 232 -65 45 0 194 47 247
77 96 56 176 149 215 251 l21 57 5 4235 5 4235 148 3 147 3 0 -1453 c0 -824 4
-1491 10 -1541 16 -159 89 -269 220 -331 60 -29 73 -31 175 -31 103 0 114 2
177 32 120 57 194 156 218 294 8 45 10 618 8 1994 -4 2173 4 1973 -83 2150
-104 213 -297 370 -540 438 l-80 22 -1540 1 c-847 1 -1567 -2 -1600 -7z"/>
</g>
</svg>
